#!OML:ASF I:\Actors\actors\Patient Classification 1\Patient 1\Session 1\Subject1.ASF
:FULLY-SPECIFIED
:DEGREES
1455
root 0.806961 17.4428 9.35341 6.39954 -0.70032 -8.57622
lowerback -8.38028 1.40877 6.77123
upperback -11.8443 1.78579 1.96866
thorax -7.75003 0.443127 -1.65556
lowerneck -8.08149 -4.88774 -3.71775
upperneck 40.3361 -9.07397 5.55654
head 16.2475 -3.71486 1.66039
rclavicle 4.96962e-016 -1.35174e-014
rhumerus 11.5828 66.7401 -92.5051
rradius 143.352
rwrist -36.1898
rhand -11.9953 -64.0143
rfingers 7.12502
rthumb 14.0615 -626.481
lclavicle 4.96962e-016 -1.35174e-014
lhumerus -54.4965 -55.3991 136.098
lradius 92.1197
lwrist 72.8755
lhand -17.4908 9.71556
lfingers 7.12502
lthumb 8.76177 39.5137
rfemur 1.42028 22.8604 27.5293
rtibia 4.12264
rfoot -14.6939 -21.1085
rtoes -0.209758
lfemur 11.3735 -40.4029 -15.4031
ltibia -4.06142
lfoot -20.5041 47.608
ltoes 3.67755
1456
root 0.807174 17.442 9.35508 6.42456 -0.717814 -8.58186
lowerback -8.40032 1.25745 6.71287
upperback -11.8676 1.59654 2.19313
thorax -7.78688 0.363133 -1.38852
lowerneck -7.95902 -4.75061 -3.96889
upperneck 40.3474 -8.77537 5.48649
head 16.209 -3.64096 1.72644
rclavicle 1.98785e-015 2.5842e-015
rhumerus 11.4826 67.2042 -92.6189
rradius 143.358
rwrist -36.3173
rhand -12.0236 -64.008
rfingers 7.12502
rthumb 14.0342 -626.486
lclavicle 1.98785e-015 2.5842e-015
lhumerus -53.9139 -54.9275 135.65
lradius 92.0537
lwrist 72.7467
lhand -17.3979 9.51825
lfingers 7.12502
lthumb 8.85139 39.3126
rfemur 1.36777 22.8433 27.5162
rtibia 4.16664
rfoot -14.6949 -21.0733
rtoes -0.283574
lfemur 11.3708 -40.436 -15.3946
ltibia -4.06841
lfoot -20.7078 47.6046
ltoes 4.05834
1457
root 0.806823 17.442 9.35787 6.42578 -0.747552 -8.59683
lowerback -8.40453 1.37976 6.76813
upperback -11.8513 1.74991 2.06193
thorax -7.75024 0.429963 -1.55515
lowerneck -7.9677 -4.8643 -3.7127
upperneck 40.3338 -9.00224 5.45937
head 16.2046 -3.7001 1.63165
rclavicle 2.06736e-014 -2.22639e-014
rhumerus 11.598 66.8803 -92.4689
rradius 143.356
rwrist -36.2782
rhand -12.1272 -63.9838
rfingers 7.12502
rthumb 13.9344 -626.503
lclavicle 2.06736e-014 -2.22639e-014
lhumerus -54.3103 -55.2314 135.978
lradius 92.0612
lwrist 72.7475
lhand -17.3342 9.54776
lfingers 7.12502
lthumb 8.91284 39.3395
rfemur 1.36791 22.8632 27.5348
rtibia 4.17337
rfoot -14.6652 -21.0789
rtoes -0.265059
lfemur 11.4128 -40.4331 -15.3996
ltibia -4.0951
lfoot -20.7115 47.6484
ltoes 4.06543
1458
root 0.806611 17.442 9.36179 6.41709 -0.79144 -8.61223
lowerback -8.41602 1.41795 6.77654
upperback -11.8281 1.79702 2.04397
thorax -7.71313 0.45334 -1.5777
lowerneck -7.98517 -4.90662 -3.57241
upperneck 40.3299 -9.0664 5.3705
head 16.1962 -3.71685 1.55665
rclavicle -3.33958e-014 2.80286e-014
rhumerus 11.6702 66.7848 -92.3962
rradius 143.34
rwrist -36.2171
rhand -12.2286 -63.9955
rfingers 7.12502
rthumb 13.8367 -626.485
lclavicle -3.33958e-014 2.80286e-014
lhumerus -54.42 -55.2899 136.059
lradius 92.1005
lwrist 72.7803
lhand -17.3414 9.70136
lfingers 7.12502
lthumb 8.90588 39.4934
rfemur 1.39509 22.9124 27.5646
rtibia 4.1728
rfoot -14.6468 -21.0986
rtoes -0.187752
lfemur 11.4922 -40.4562 -15.4392
ltibia -4.10657
lfoot -20.8503 47.676
ltoes 4.19789
1459
root 0.807538 17.4417 9.36542 6.42412 -0.822229 -8.61236
lowerback -8.4357 1.43067 6.80244
upperback -11.8129 1.8094 2.02875
thorax -7.68319 0.457702 -1.60749
lowerneck -7.99587 -4.93039 -3.53061
upperneck 40.3431 -9.10837 5.35064
head 16.2051 -3.73052 1.53343
rclavicle 1.5704e-014 0
rhumerus 11.7002 66.7102 -92.406
rradius 143.317
rwrist -36.1967
rhand -12.2439 -63.9949
rfingers 7.12502
rthumb 13.8219 -626.484
lclavicle 1.5704e-014 0
lhumerus -54.4563 -55.3036 136.072
lradius 92.1331
lwrist 72.8261
lhand -17.3399 9.76651
lfingers 7.12502
lthumb 8.9074 39.5585
rfemur 1.39299 22.8881 27.5547
rtibia 4.18853
rfoot -14.6514 -21.0533
rtoes -0.268853
lfemur 11.537 -40.5026 -15.4845
ltibia -4.10536
lfoot -20.9906 47.7049
ltoes 4.36756
1460
root 0.80913 17.4411 9.36838 6.46695 -0.825707 -8.60953
lowerback -8.47003 1.46582 6.85039
upperback -11.8068 1.84886 1.98385
thorax -7.65217 0.472304 -1.68001
lowerneck -8.02751 -4.96907 -3.51372
upperneck 40.3681 -9.18586 5.37614
head 16.2335 -3.75579 1.52834
rclavicle -9.0447e-015 3.16068e-014
rhumerus 11.7432 66.5705 -92.3638
rradius 143.315
rwrist -36.2111
rhand -12.2929 -64.0527
rfingers 7.12502
rthumb 13.7747 -626.423
lclavicle -9.0447e-015 3.16068e-014
lhumerus -54.55 -55.3964 136.182
lradius 92.1179
lwrist 72.8172
lhand -17.3033 9.77002
lfingers 7.12502
lthumb 8.9427 39.5605
rfemur 1.35176 22.8244 27.5197
rtibia 4.19666
rfoot -14.666 -20.9803
rtoes -0.383748
lfemur 11.5119 -40.5469 -15.484
ltibia -4.12097
lfoot -20.9946 47.7772
ltoes 4.40387
1461
root 0.810155 17.4401 9.37058 6.53095 -0.82128 -8.64314
lowerback -8.5173 1.4976 6.91333
upperback -11.7952 1.88354 1.97248
thorax -7.60898 0.485559 -1.72503
lowerneck -8.27998 -5.01447 -3.96136
upperneck 40.5892 -9.2959 5.69352
head 16.4797 -3.81767 1.7255
rclavicle 8.94531e-015 -3.53837e-014
rhumerus 11.8416 66.4608 -92.23
rradius 143.324
rwrist -36.2454
rhand -12.3634 -64.123
rfingers 7.12502
rthumb 13.7068 -626.348
lclavicle 8.94531e-015 -3.53837e-014
lhumerus -54.5693 -55.4751 136.253
lradius 92.0848
lwrist 72.7563
lhand -17.1176 9.83756
lfingers 7.12502
lthumb 9.12183 39.6203
rfemur 1.28278 22.8228 27.5275
rtibia 4.20206
rfoot -14.7011 -20.9531
rtoes -0.384345
lfemur 11.408 -40.5024 -15.3696
ltibia -4.12075
lfoot -20.9671 47.757
ltoes 4.36218
